<svg width="817" height="641" viewBox="0 0 817 641" fill="none" xmlns="http://www.w3.org/2000/svg">
<path d="M280 112V160H183C170.297 160 160 170.297 160 183V232H112V183C112 143.788 143.788 112 183 112H280Z" fill="white"/>
<circle cx="280" cy="136" r="24" fill="white"/>
<circle cx="136" cy="232" r="24" fill="white"/>
<path d="M585 0C686.068 0 768 81.9319 768 183V204.217C748.156 190.906 726.513 180.07 703.511 172.152C698.031 111.514 647.065 64 585 64H183C117.278 64 64 117.278 64 183V393C64 458.722 117.278 512 183 512H343.317C349.649 534.623 358.757 556.086 370.249 576H183C82.7215 576 1.28102 495.343 0.0146484 395.365L0 393V183C0 81.9319 81.9319 0 183 0H585Z" fill="white"/>
<path d="M642.221 443.046H817V268.334C816.727 229.657 794.13 220.354 766.795 247.718L727.463 287.179C692.809 259.954 649.995 245.189 605.922 245.264C553.093 245.264 503.366 265.846 466.045 303.229C447.576 321.519 432.932 343.3 422.967 367.305C413.002 391.309 407.914 417.057 408.001 443.046C408.001 495.968 428.587 545.686 465.977 583C484.31 601.438 506.118 616.058 530.14 626.013C554.161 635.969 579.919 641.063 605.922 640.999C658.752 640.999 708.479 620.383 745.868 582.966C755.957 572.846 764.887 561.805 772.453 550.082C778.125 541.252 780.057 530.531 777.823 520.277C775.589 510.023 769.373 501.077 760.541 495.406C751.71 489.735 740.986 487.803 730.731 490.037C720.475 492.27 711.527 498.486 705.855 507.316C701.321 514.369 695.902 520.946 689.904 527.08C678.895 538.133 665.806 546.895 651.392 552.861C636.977 558.827 621.523 561.878 605.922 561.839C590.32 561.887 574.864 558.84 560.448 552.874C546.032 546.907 532.944 538.14 521.941 527.08C510.884 516.069 502.119 502.976 496.152 488.558C490.185 474.141 487.134 458.684 487.176 443.081C487.176 411.389 499.515 381.572 521.941 359.217C532.948 348.16 546.036 339.393 560.451 333.421C574.865 327.449 590.32 324.392 605.922 324.425C629.372 324.425 651.799 331.274 670.987 343.917L621.635 393.362C594.266 420.692 603.571 443.046 642.221 443.046Z" fill="white"/>
</svg>
