<svg width="849" height="849" viewBox="0 0 849 849" fill="none" xmlns="http://www.w3.org/2000/svg">
<g transform="translate(0 110)">
<path d="M222.427 52.7206C292.721 -17.5735 406.69 -17.5735 476.984 52.7206L575.98 151.716L577.614 153.371C646.27 223.788 645.725 336.529 575.98 406.274L406.275 575.979L404.619 577.614C334.757 645.729 223.234 645.729 153.371 577.614L151.716 575.979L52.7208 476.984C-17.0242 407.239 -17.5695 294.498 51.0861 224.081L52.7208 222.426L222.427 52.7206ZM413.346 116.36C378.199 81.2131 321.214 81.2132 286.067 116.36L116.36 286.065C81.2134 321.212 81.2135 378.197 116.36 413.345L215.356 512.34C250.503 547.487 307.488 547.487 342.635 512.34L512.34 342.635C547.487 307.487 547.487 250.503 512.34 215.355L413.346 116.36Z" fill="white"/>
<path d="M479.705 24.0665C548.543 -15.7227 638.091 -6.17237 696.985 52.7208L795.98 151.716L797.615 153.371C866.27 223.788 865.725 336.528 795.98 406.273L626.275 575.98L624.619 577.614C565.713 635.047 477.189 644.053 408.993 604.634C422.32 596.931 434.873 587.381 446.275 575.98L484.692 537.561C512.224 541.969 541.411 533.564 562.635 512.34L732.34 342.634C767.487 307.487 767.487 250.503 732.34 215.356L633.345 116.36C612.121 95.1365 582.934 86.7292 555.402 91.1378L516.985 52.7208C505.583 41.3194 493.032 31.7693 479.705 24.0665Z" fill="white"/>
</g>
</svg>
